<svg t="1595135957041" class="icon" viewBox="0 0 1024 1024" version="1.1" xmlns="http://www.w3.org/2000/svg" p-id="2109" width="200" height="200"><path d="M512 318.565c-35.75 0-64.836 29.086-64.836 64.836S476.25 448.236 512 448.236s64.835-29.085 64.835-64.835-29.086-64.836-64.835-64.836z" p-id="2110"></path><path d="M783.478 114.016c-100.529 0-195.327-32.661-271.478-89.112-76.151 56.45-170.95 89.112-271.478 89.112-34.934 0-71.088-6.478-108.294-19.362v426.454c0 39.576 14.107 88.164 40.796 140.51 27.762 54.454 69.204 113.044 119.844 169.438 44.973 50.083 97.489 98.561 147.871 136.505 22.154 16.684 40.63 28.913 55.086 37.612a22.085 22.085 0 0 0 23.153-0.233c14.648-9.207 33.315-21.924 55.71-38.951 51.98-39.52 105.809-88.705 151.57-138.496 52.447-57.062 95.262-115.731 123.819-169.668 27.278-51.521 41.696-98.798 41.696-136.717V94.654c-37.207 12.883-73.361 19.362-108.295 19.362zM552.932 556.025v186.128c0 22.606-18.326 40.932-40.932 40.932s-40.932-18.326-40.932-40.932V556.025C392.918 537.495 334.6 467.135 334.6 383.4c0-97.818 79.581-177.4 177.399-177.4s177.398 79.582 177.398 177.4c0 83.734-58.317 154.096-136.466 172.624z" p-id="2111"></path></svg>
