<svg t="1595138652158" class="icon" viewBox="0 0 1024 1024" version="1.1" xmlns="http://www.w3.org/2000/svg" p-id="3053" width="200" height="200"><path d="M620.346637 925.351236l-375.627053 0c-18.107403 0-32.736589-15.119349-32.736589-33.009811l0-0.690732 0-28.589129-64.177672 0c-2.296299 0-4.6366 0-6.479575-0.706081-17.228383-2.792603-31.166837-13.023618-40.432875-25.789363-9.31618-13.232372-14.44192-30.440289-14.44192-46.242184l0-69.959352c0-33.485649 6.054903-64.846914 18.150382-94.595448 24.15412-57.878199 73.42836-99.001805 116.886127-142.242631l-1.605567-1.396813 0-0.467651c-42.088584-41.829687-65.790402-98.994642-65.790402-158.737304 0-123.148761 101.096513-224.27495 224.506217-224.27495l0 0c123.170251 0 224.765113 101.126188 224.765113 224.27495 0 61.83737-25.573445 118.065999-66.027809 158.737304l0 0.467651 0 0-1.864464 1.396813c26.963095 26.962072 56.71163 53.003168 80.887238 83.184561l-70.167083 18.387789 0 0 0 0c-21.404496-22.779819-45.343721-43.931558-64.156182-62.528102-30.936593 16.278755-66.005296 24.88169-103.436814 24.88169-37.409005 0-72.744791-8.603959-103.890138-24.88169-36.488029 36.250622-89.232301 78.806857-109.678982 128.318504-8.833179 21.361517-13.016455 44.61615-13.016455 69.476351l0 69.959352c0 2.548032 0.468674 5.550413 1.38965 7.206122l84.581374 0 0-86.237083c0-10.705829 8.841366-19.73446 19.993357-19.73446 10.68434 0 19.309788 9.028631 19.309788 19.73446l0 116.201535 0 2.807952 0 29.496801 230.514047 0L620.346637 925.351236zM378.595664 164.187433 378.595664 164.187433c-87.605244 0-159.190629 71.13206-159.190629 158.737304 0 88.807628 72.031547 159.204955 159.190629 159.204955 87.173408 0 159.204955-70.397327 159.204955-159.204955C537.800619 235.319493 466.222397 164.187433 378.595664 164.187433L378.595664 164.187433zM492.335125 619.029642c34.763758-34.888602 81.195254-52.68492 127.08849-52.68492 24.298406 0 49.136094 5.300726 71.957869 15.35164l134.831848-135.385457c3.798513-3.520173 8.824993-5.425569 13.573133-5.425569l0.412392 0 77.936023 0c10.868535 0 19.415189 8.408507 19.415189 19.010983l0 0.677429 0 77.937047c0 5.299703-2.031263 10.050913-5.564739 13.58439l-141.351332 141.060713c5.304819 17.118889 8.021697 35.040051 8.021697 52.68492 0 45.892213-17.519002 91.797729-52.959166 126.824477-34.763758 35.164894-80.644715 52.68492-126.271892 52.68492-46.171576 0-92.324732-17.520025-127.08849-52.68492-35.180244-35.026748-52.420907-80.932264-52.420907-126.824477C439.914218 699.960883 457.154881 654.069693 492.335125 619.029642L492.335125 619.029642zM899.401214 495.476675 899.401214 495.476675l-139.320069 139.042753c5.177929 6.779404 9.91379 13.848403 13.985526 20.904099l125.334543-124.920104L899.401214 495.476675 899.401214 495.476675zM744.467539 617.675808 744.467539 617.675808l138.630361-138.491191-35.302017 0-122.340349 122.338303c6.254447 4.473895 11.966543 9.499351 17.796318 14.512529l0.273223 0.563842L744.467539 617.675808 744.467539 617.675808zM619.423615 604.781126 619.423615 604.781126c-36.656875 0-72.774467 13.696953-100.06809 41.267892-27.297716 27.557636-41.283242 63.686485-41.283242 99.79282 0 36.116569 13.985526 72.247464 41.283242 99.943246 27.293623 27.432793 63.672158 41.279149 100.06809 41.279149 35.840276 0 72.232115-13.846356 99.525738-41.279149 27.823696-27.695782 41.270962-63.826678 41.270962-99.943246 0-17.244756-2.995217-34.338063-9.375531-50.643424l-0.260943-0.675382C729.957057 641.023562 677.809373 604.781126 619.423615 604.781126L619.423615 604.781126zM619.423615 680.399361 619.423615 680.399361c35.840276 0 65.178465 29.336142 65.178465 65.442478 0 35.854603-29.338189 65.442478-65.178465 65.442478-36.118616 0-65.455781-29.587875-65.455781-65.442478C553.967834 709.735503 583.304999 680.399361 619.423615 680.399361L619.423615 680.399361zM619.423615 703.496405 619.423615 703.496405c-23.626094 0-42.634006 18.99768-42.634006 42.345434 0 23.360034 19.007913 42.371016 42.634006 42.371016 23.347754 0 42.355667-19.010983 42.355667-42.371016C661.779282 722.495108 642.771369 703.496405 619.423615 703.496405L619.423615 703.496405z" p-id="3054"></path></svg>
